<svg width="21" height="22" viewBox="0 0 21 22" fill="none" xmlns="http://www.w3.org/2000/svg">
<path d="M9.44853 10H11.4485V3C11.4485 2.71667 11.3527 2.47917 11.161 2.2875C10.9694 2.09583 10.7319 2 10.4485 2C10.1652 2 9.9277 2.09583 9.73603 2.2875C9.54436 2.47917 9.44853 2.71667 9.44853 3V10ZM3.44853 14H17.4485V12H3.44853V14ZM1.99853 20H4.44853V18C4.44853 17.7167 4.54436 17.4792 4.73603 17.2875C4.9277 17.0958 5.1652 17 5.44853 17C5.73186 17 5.96936 17.0958 6.16103 17.2875C6.3527 17.4792 6.44853 17.7167 6.44853 18V20H9.44853V18C9.44853 17.7167 9.54436 17.4792 9.73603 17.2875C9.9277 17.0958 10.1652 17 10.4485 17C10.7319 17 10.9694 17.0958 11.161 17.2875C11.3527 17.4792 11.4485 17.7167 11.4485 18V20H14.4485V18C14.4485 17.7167 14.5444 17.4792 14.736 17.2875C14.9277 17.0958 15.1652 17 15.4485 17C15.7319 17 15.9694 17.0958 16.161 17.2875C16.3527 17.4792 16.4485 17.7167 16.4485 18V20H18.8985L17.8985 16H2.99853L1.99853 20ZM18.8985 22H1.99853C1.34853 22 0.823529 21.7417 0.423529 21.225C0.0235294 20.7083 -0.0931373 20.1333 0.0735294 19.5L1.44853 14V12C1.44853 11.45 1.64436 10.9792 2.03603 10.5875C2.4277 10.1958 2.89853 10 3.44853 10H7.44853V3C7.44853 2.16667 7.7402 1.45833 8.32353 0.875C8.90686 0.291667 9.6152 0 10.4485 0C11.2819 0 11.9902 0.291667 12.5735 0.875C13.1569 1.45833 13.4485 2.16667 13.4485 3V10H17.4485C17.9985 10 18.4694 10.1958 18.861 10.5875C19.2527 10.9792 19.4485 11.45 19.4485 12V14L20.8235 19.5C21.0402 20.1333 20.9444 20.7083 20.536 21.225C20.1277 21.7417 19.5819 22 18.8985 22ZM17.4485 12H3.44853H17.4485ZM11.4485 10H9.44853C9.44853 10 9.54436 10 9.73603 10C9.9277 10 10.1652 10 10.4485 10C10.7319 10 10.9694 10 11.161 10C11.3527 10 11.4485 10 11.4485 10Z" fill="#C1C6D7"/>
</svg>
