<svg width="12" height="11" viewBox="0 0 12 11" fill="none" xmlns="http://www.w3.org/2000/svg">
<path d="M2.33333 7H3.5V3.5H2.33333V7ZM5.25 7H6.41667V3.5H5.25V7ZM8.16667 7H9.33333V3.5H8.16667V7ZM1.16667 8.16667H10.5V2.33333H1.16667V8.16667ZM1.16667 8.16667V2.33333V8.16667ZM1.75 10.5V9.33333H1.16667C0.845833 9.33333 0.571181 9.2191 0.342708 8.99063C0.114236 8.76215 0 8.4875 0 8.16667V2.33333C0 2.0125 0.114236 1.73785 0.342708 1.50937C0.571181 1.2809 0.845833 1.16667 1.16667 1.16667H1.75V0H2.91667V1.16667H5.25V0H6.41667V1.16667H8.75V0H9.91667V1.16667H10.5C10.8208 1.16667 11.0955 1.2809 11.324 1.50937C11.5524 1.73785 11.6667 2.0125 11.6667 2.33333V8.16667C11.6667 8.4875 11.5524 8.76215 11.324 8.99063C11.0955 9.2191 10.8208 9.33333 10.5 9.33333H9.91667V10.5H8.75V9.33333H6.41667V10.5H5.25V9.33333H2.91667V10.5H1.75Z" fill="#FF5545"/>
</svg>
