<svg width="20" height="14" viewBox="0 0 20 14" fill="none" xmlns="http://www.w3.org/2000/svg">
<path d="M15 11C15.4167 11 15.7708 10.8583 16.0625 10.575C16.3542 10.2917 16.5 9.93333 16.5 9.5C16.5 9.08333 16.3542 8.72917 16.0625 8.4375C15.7708 8.14583 15.4167 8 15 8C14.5667 8 14.2083 8.14583 13.925 8.4375C13.6417 8.72917 13.5 9.08333 13.5 9.5C13.5 9.93333 13.6417 10.2917 13.925 10.575C14.2083 10.8583 14.5667 11 15 11ZM0 4L3.4 0.6C3.58333 0.416667 3.79583 0.270833 4.0375 0.1625C4.27917 0.0541667 4.54167 0 4.825 0H15.15C15.4333 0 15.6958 0.0541667 15.9375 0.1625C16.1792 0.270833 16.3917 0.416667 16.575 0.6L20 4H0ZM2 14C1.43333 14 0.958333 13.8083 0.575 13.425C0.191667 13.0417 0 12.5667 0 12V6H20V12C20 12.5667 19.8042 13.0417 19.4125 13.425C19.0208 13.8083 18.55 14 18 14H2Z" fill="#ADC6FF"/>
</svg>
